<?xml version="1.0" encoding="UTF-8"?>
<svg version="1.1" xmlns="http://www.w3.org/2000/svg" width="356" height="204">
<path d="M0 0 C117.48 0 234.96 0 356 0 C356 67.32 356 134.64 356 204 C238.52 204 121.04 204 0 204 C0 136.68 0 69.36 0 0 Z " fill="#FEFEFE" transform="translate(0,0)"/>
<path d="M0 0 C-5.54230882 12.61158028 -22.57300012 22.70451786 -34.7421875 28.01171875 C-40.27932518 29.69144996 -47.63902575 30.68048713 -53 28 C-56.69083925 27.5078881 -58.37401733 27.52227638 -61.375 29.8125 C-64.54833288 33.38249949 -67.1865726 37.41016835 -69.95703125 41.29296875 C-72.19888112 44.263527 -74.60910182 46.78742387 -77.30859375 49.3359375 C-79.06668372 51.06560569 -80.57244627 52.89755658 -82.125 54.8125 C-88.81981462 62.56518601 -99.36770821 71.98236109 -109.75390625 73.3671875 C-114.24812447 73.5706541 -117.09920704 73.54422908 -121 71.1875 C-121.99 70.1046875 -121.99 70.1046875 -123 69 C-123.99640075 67.99641366 -124.9957296 66.99571128 -126 66 C-126.36649658 66.56807373 -126.73299316 67.13614746 -127.1105957 67.72143555 C-134.46613861 79.0719871 -141.84900652 90.02105949 -151 100 C-152.09441406 101.25103516 -152.09441406 101.25103516 -153.2109375 102.52734375 C-158.52491954 108.31978777 -158.52491954 108.31978777 -163 109 C-163.99 109 -164.98 109 -166 109 C-166.99 111.97 -167.98 114.94 -169 118 C-163.87696687 114.70041934 -158.98602344 111.25698347 -154.1875 107.5 C-117.89511737 79.25569624 -78.10259112 58.92984574 -35.125 43 C-33.89531494 42.54270508 -32.66562988 42.08541016 -31.39868164 41.61425781 C-12.48828477 34.73493489 -12.48828477 34.73493489 -3 35 C-3 35.66 -3 36.32 -3 37 C-6.62128443 39.00678401 -10.24761643 41.0042648 -13.875 43 C-15.42380859 43.85851563 -15.42380859 43.85851563 -17.00390625 44.734375 C-17.99003906 45.27578125 -18.97617187 45.8171875 -19.9921875 46.375 C-20.90339355 46.87773438 -21.81459961 47.38046875 -22.75341797 47.8984375 C-25 49 -25 49 -27 49 C-27 48.34 -27 47.68 -27 47 C-22.05 44.36 -17.1 41.72 -12 39 C-20.56412222 41.20261688 -28.83200955 43.94037785 -37.125 47 C-37.77484863 47.23887939 -38.42469727 47.47775879 -39.09423828 47.72387695 C-79.74178226 62.71779794 -116.55971359 83.03665574 -151.20043945 108.97558594 C-154.76391488 111.64213724 -158.32781596 114.25495581 -162.05859375 116.68359375 C-169.68596753 121.6687539 -176.84768653 126.66049692 -179 136 C-179.02359264 143.76787666 -177.44294277 151.39788128 -176 159 C-175.58137348 161.47631981 -175.19528116 163.95522218 -174.8125 166.4375 C-174.6578125 167.41203125 -174.503125 168.3865625 -174.34375 169.390625 C-173.16587678 178.33175355 -173.16587678 178.33175355 -175 182 C-177.25 182 -177.25 182 -180 181 C-186.0183832 171.51648707 -188.55455901 160.11375277 -189 149 C-191.58821645 151.56946126 -194.14438218 154.15202594 -196.65625 156.796875 C-215.71591145 176.71984275 -215.71591145 176.71984275 -226.25 177.125 C-227.1575 177.08375 -228.065 177.0425 -229 177 C-229.33 175.68 -229.66 174.36 -230 173 C-227 171 -227 171 -224.8125 171.375 C-224.214375 171.58125 -223.61625 171.7875 -223 172 C-223.99 172.66 -224.98 173.32 -226 174 C-214.02848925 172.45251567 -202.90900196 159.16006452 -194.875 150.875 C-194.12992187 150.10929688 -193.38484375 149.34359375 -192.6171875 148.5546875 C-190.51373629 145.23184428 -190.70769475 142.85654343 -191 139 C-199.86285184 145.19605263 -208.67508608 151.45163141 -217.375 157.875 C-218.16060303 158.45403076 -218.94620605 159.03306152 -219.75561523 159.62963867 C-223.84398091 162.64861794 -227.91560102 165.68779767 -231.96875 168.75390625 C-255.18346934 186.24359885 -255.18346934 186.24359885 -263.6875 186.5625 C-267 186 -267 186 -269 184 C-269.54537418 177.97551774 -268.80991372 174.64961996 -265.625 169.375 C-265.09024048 168.48603027 -265.09024048 168.48603027 -264.54467773 167.57910156 C-252.5981395 148.07182114 -234.71861109 124.19422685 -212 117 C-206.61087853 116.17248262 -201.0449481 115.63873513 -196.4375 119 C-192.58320919 123.74374253 -191 127.89266028 -191 134 C-189.35 133.67 -187.7 133.34 -186 133 C-186 133.66 -186 134.32 -186 135 C-186.99 135.66 -187.98 136.32 -189 137 C-189.2502157 140.08365871 -189.2502157 140.08365871 -189 143 C-188.34 143 -187.68 143 -187 143 C-185.71041353 140.6050537 -184.83536665 138.44024662 -184.0625 135.8125 C-183.711875 134.884375 -183.36125 133.95625 -183 133 C-182.01 132.67 -181.02 132.34 -180 132 C-177.63019987 129.04622502 -177.63019987 129.04622502 -178 125 C-176.69238307 123.64143696 -175.35485373 122.31145984 -174 121 C-169.83707949 113.82941922 -167.55910631 106.91158453 -166.48828125 98.734375 C-165.52781426 93.35575988 -163.17398226 88.58548346 -159 85 C-158.34 85 -157.68 85 -157 85 C-157.57618751 90.14595054 -158.74743278 94.55078055 -160.5625 99.4375 C-161.01753906 100.67371094 -161.47257812 101.90992187 -161.94140625 103.18359375 C-162.46541016 104.57771484 -162.46541016 104.57771484 -163 106 C-149.43700264 98.29640425 -140.71497741 83.45194968 -132.57885742 70.56079102 C-132.14033447 69.86655029 -131.70181152 69.17230957 -131.25 68.45703125 C-130.86328125 67.83803955 -130.4765625 67.21904785 -130.078125 66.58129883 C-129 65 -129 65 -127 63 C-125.1875 63 -125.1875 63 -123 64 C-122.278125 65.010625 -121.55625 66.02125 -120.8125 67.0625 C-119.3003403 68.95499078 -118.42533568 69.86434767 -116.1015625 70.60546875 C-107.66929103 71.16863489 -100.29901881 66.66459212 -93.953125 61.5390625 C-91.37485228 59.25901971 -88.90642638 56.87727929 -86.46582031 54.45117188 C-85.0360713 53.03571083 -83.57689454 51.65017098 -82.1171875 50.265625 C-76.42593649 44.78046386 -71.63384462 39.1640926 -67.0703125 32.7265625 C-64.89282319 29.85885016 -62.70475197 27.37949698 -60 25 C-56.17735999 24.60455448 -53.63782632 24.78739123 -50 26 C-37.69296677 27.21052786 -27.25527698 21.957705 -17.83203125 14.4140625 C-10.34452326 8.0915327 -10.34452326 8.0915327 -3.34765625 1.2421875 C-2 0 -2 0 0 0 Z " fill="#1D1D1D" transform="translate(339,9)"/>
<path d="M0 0 C3.55679322 4.06490654 4.87035194 8.17628053 5.59375 13.4765625 C5.1875 16.5 5.1875 16.5 3.01171875 18.78125 C1.97660156 19.5134375 0.94148438 20.245625 -0.125 21 C-0.69968018 21.41596436 -1.27436035 21.83192871 -1.86645508 22.26049805 C-3.14413156 23.18433579 -4.427606 24.1001914 -5.71582031 25.00927734 C-7.92327005 26.57875663 -10.10025746 28.18421571 -12.2734375 29.80078125 C-17.10176777 33.39200955 -21.95347829 36.95044018 -26.8125 40.5 C-27.60978516 41.08281738 -28.40707031 41.66563477 -29.22851562 42.26611328 C-59.31754044 64.22813939 -59.31754044 64.22813939 -67.8125 63.5 C-68.8125 62.5 -68.8125 62.5 -69.015625 59.73828125 C-67.96956754 43.06171142 -47.3717851 23.87814863 -35.859375 13.30322266 C-26.99455459 5.49363731 -12.25266758 -6.53475604 0 0 Z " fill="#FCFCFC" transform="translate(140.8125,129.5)"/>
<path d="M0 0 C2.6875 1.1875 2.6875 1.1875 4.6875 4.1875 C6.75815539 20.79633585 0.7991002 38.86378744 -8.87109375 52.36328125 C-9.32613281 52.94464844 -9.78117187 53.52601562 -10.25 54.125 C-12.69174688 57.75062415 -12.91192152 59.9979898 -12.3125 64.1875 C-11.18796405 68.37740474 -9.78917517 72.46260071 -8.375 76.5625 C-5.87619814 83.83017242 -3.82267911 90.49432297 -3.3125 98.1875 C-3.9725 98.1875 -4.6325 98.1875 -5.3125 98.1875 C-5.63863281 97.07632813 -5.96476563 95.96515625 -6.30078125 94.8203125 C-7.63544898 90.27528309 -8.97343788 85.7312364 -10.3125 81.1875 C-10.60769531 80.18460937 -10.90289062 79.18171875 -11.20703125 78.1484375 C-12.79782046 72.78909418 -14.51016979 67.47944829 -16.3125 62.1875 C-16.869375 62.8165625 -17.42625 63.445625 -18 64.09375 C-28.81095651 76.21955257 -39.50314218 87.94341296 -55.3125 93.1875 C-56.01165527 93.45135498 -56.71081055 93.71520996 -57.43115234 93.98706055 C-65.74386191 96.89129171 -74.17459769 96.6305329 -82.86279297 96.62329102 C-100.25514151 96.6545198 -112.54765911 103.06837688 -125.21875 114.9375 C-130.54478354 120.66099873 -132.30920219 127.7813687 -134.3125 135.1875 C-133.6525 135.1875 -132.9925 135.1875 -132.3125 135.1875 C-132.3125 135.8475 -132.3125 136.5075 -132.3125 137.1875 C-133.9625 137.1875 -135.6125 137.1875 -137.3125 137.1875 C-136.5958246 126.67626087 -131.95064663 117.34450354 -124.3125 110.1875 C-123.26835938 109.20523438 -123.26835938 109.20523438 -122.203125 108.203125 C-119.673501 106.01304785 -117.06163995 104.09499149 -114.3125 102.1875 C-113.28640625 101.44628906 -112.2603125 100.70507812 -111.203125 99.94140625 C-100.98432969 93.37114857 -90.5147802 93.54486658 -78.76611328 93.47558594 C-56.45662737 93.29748373 -42.57114746 85.20477135 -27.00244141 69.78564453 C-25.3125 68.1875 -25.3125 68.1875 -22.57421875 66.12109375 C-19.19588441 63.3428188 -17.53214285 61.13907444 -17.03173828 56.69287109 C-16.77024134 50.4558015 -17.0307293 44.23846078 -17.25634766 38.00390625 C-17.4987754 25.84457405 -14.4743016 12.99656576 -6.875 3.3125 C-4.31197807 0.65434407 -3.81927704 0.21618549 0 0 Z " fill="#151515" transform="translate(158.3125,35.8125)"/>
<path d="M0 0 C4.0854059 2.98042019 5.92681003 7.36151569 7.01171875 12.1484375 C7.01171875 13.4684375 7.01171875 14.7884375 7.01171875 16.1484375 C8.66171875 15.8184375 10.31171875 15.4884375 12.01171875 15.1484375 C12.01171875 15.8084375 12.01171875 16.4684375 12.01171875 17.1484375 C11.02171875 17.8084375 10.03171875 18.4684375 9.01171875 19.1484375 C8.76150305 22.23209621 8.76150305 22.23209621 9.01171875 25.1484375 C9.67171875 25.1484375 10.33171875 25.1484375 11.01171875 25.1484375 C11.67171875 23.8284375 12.33171875 22.5084375 13.01171875 21.1484375 C14.99171875 21.1484375 16.97171875 21.1484375 19.01171875 21.1484375 C19.73158986 25.70047352 20.44335998 30.25367896 21.14794922 34.80810547 C21.38828871 36.35434331 21.63076256 37.90025108 21.87548828 39.44580078 C22.22873084 41.67915884 22.5740462 43.91362754 22.91796875 46.1484375 C23.02733765 46.82898193 23.13670654 47.50952637 23.24938965 48.21069336 C25.04860625 60.07466249 25.04860625 60.07466249 23.01171875 64.1484375 C20.76171875 64.1484375 20.76171875 64.1484375 18.01171875 63.1484375 C11.99333555 53.66492457 9.45715974 42.26219027 9.01171875 31.1484375 C6.4235023 33.71789876 3.86733657 36.30046344 1.35546875 38.9453125 C-17.7041927 58.86828025 -17.7041927 58.86828025 -28.23828125 59.2734375 C-29.14578125 59.2321875 -30.05328125 59.1909375 -30.98828125 59.1484375 C-31.48328125 57.1684375 -31.48328125 57.1684375 -31.98828125 55.1484375 C-28.98828125 53.1484375 -28.98828125 53.1484375 -26.80078125 53.5234375 C-26.20265625 53.7296875 -25.60453125 53.9359375 -24.98828125 54.1484375 C-25.97828125 54.8084375 -26.96828125 55.4684375 -27.98828125 56.1484375 C-16.0167705 54.60095317 -4.89728321 41.30850202 3.13671875 33.0234375 C3.88179688 32.25773437 4.626875 31.49203125 5.39453125 30.703125 C7.49798246 27.38028178 7.304024 25.00498093 7.01171875 21.1484375 C-1.85113309 27.34449013 -10.66336733 33.60006891 -19.36328125 40.0234375 C-20.54168579 40.89198364 -20.54168579 40.89198364 -21.74389648 41.77807617 C-25.83226216 44.79705544 -29.90388227 47.83623517 -33.95703125 50.90234375 C-57.17175059 68.39203635 -57.17175059 68.39203635 -65.67578125 68.7109375 C-68.98828125 68.1484375 -68.98828125 68.1484375 -70.98828125 66.1484375 C-71.53365543 60.12395524 -70.79819497 56.79805746 -67.61328125 51.5234375 C-67.2567749 50.93079102 -66.90026855 50.33814453 -66.53295898 49.72753906 C-55.26224957 31.32380698 -25.79367876 -11.04719444 0 0 Z M-40.98828125 21.1484375 C-41.84035156 21.90125 -42.69242188 22.6540625 -43.5703125 23.4296875 C-53.12154193 32.26772118 -68.22597592 49.04789188 -69.23828125 62.4609375 C-69.28454204 65.0650342 -69.28454204 65.0650342 -67.98828125 66.1484375 C-54.16403391 65.89243292 -43.02075728 54.95163906 -32.50537109 47.03613281 C-29.24941022 44.59432006 -25.97092162 42.1841177 -22.68847656 39.77807617 C-21.10459135 38.61413107 -19.52445795 37.44506214 -17.94824219 36.27075195 C-14.08737184 33.39612614 -10.20237322 30.59752243 -6.203125 27.91796875 C-5.4505542 27.39799316 -4.6979834 26.87801758 -3.92260742 26.34228516 C-2.50714451 25.36615839 -1.07422754 24.41468824 0.37768555 23.49365234 C2.29689087 22.14643483 3.68461578 21.08467871 5.01171875 19.1484375 C5.58538561 13.69830508 3.94822115 8.71633013 1.01171875 4.1484375 C-1.48185274 1.37780251 -2.86091969 1.16380872 -6.61328125 0.7109375 C-20.43242621 1.32512172 -31.50705779 12.20443498 -40.98828125 21.1484375 Z " fill="#1E1E1E" transform="translate(140.98828125,126.8515625)"/>
<path d="M0 0 C0.763125 0.78375 1.52625 1.5675 2.3125 2.375 C6.99039571 6.94410744 9.75502482 7.47330319 16.06640625 7.40625 C20.08960411 6.84910942 22.87941779 5.2269346 26.22265625 2.99609375 C26.80917969 2.66738281 27.39570313 2.33867188 28 2 C28.99 2.495 28.99 2.495 30 3 C28.85919718 6.42240847 28.4932262 6.57680645 25.484375 8.20703125 C24.73857178 8.62130371 23.99276855 9.03557617 23.22436523 9.46240234 C22.40782471 9.90793457 21.59128418 10.3534668 20.75 10.8125 C-1.39294853 23.27120018 -22.01316855 38.35659659 -42 54 C-42.66 53.67 -43.32 53.34 -44 53 C-43.5130289 51.53001271 -42.98373565 50.07401004 -42.4375 48.625 C-42.14746094 47.81289062 -41.85742188 47.00078125 -41.55859375 46.1640625 C-39.30077004 43.02913935 -36.66147895 43.00671236 -33 42 C-20.42136267 32.14882754 -11.590865 17.68546312 -3.15234375 4.359375 C-1 1 -1 1 0 0 Z " fill="#F7F7F7" transform="translate(213,74)"/>
<path d="M0 0 C0.7425 0.0825 1.485 0.165 2.25 0.25 C6.42623887 8.60247775 1.82858196 21.91412144 -0.875 30.125 C-3.54154633 37.29927941 -6.97111288 44.23140158 -11.75 50.25 C-12.74 50.25 -13.73 50.25 -14.75 50.25 C-15.27354209 34.75703214 -15.49719166 14.40636595 -4.76171875 1.94140625 C-2.75 0.25 -2.75 0.25 0 0 Z " fill="#F8F8F8" transform="translate(157.75,38.75)"/>
<path d="M0 0 C4.07796838 2.9749943 6.09900209 7.31103918 7.01171875 12.1484375 C6.95527605 14.64132362 6.57311561 16.69870576 6.01171875 19.1484375 C5.68171875 19.1484375 5.35171875 19.1484375 5.01171875 19.1484375 C4.85316406 18.34019531 4.69460937 17.53195313 4.53125 16.69921875 C3.48435257 11.90431285 2.58509384 8.00030907 -0.17578125 3.8984375 C-3.91181435 1.57379468 -6.7759751 1.36646823 -10.98828125 2.1484375 C-23.0006453 5.49066645 -32.11973408 13.764889 -40.98828125 22.1484375 C-41.81328125 22.89738281 -42.63828125 23.64632812 -43.48828125 24.41796875 C-50.66152232 31.17650682 -55.78846218 38.85085387 -60.98828125 47.1484375 C-61.64828125 46.8184375 -62.30828125 46.4884375 -62.98828125 46.1484375 C-56.55025929 27.57982679 -35.48775806 10.44978849 -18.98828125 1.0859375 C-13.08976722 -1.64450367 -6.12206132 -2.62202234 0 0 Z " fill="#1D1D1D" transform="translate(140.98828125,126.8515625)"/>
<path d="M0 0 C0.57749879 4.10661542 1.14681194 8.2142633 1.70898438 12.32299805 C1.9008186 13.71685397 2.09477958 15.11041909 2.29101562 16.50366211 C3.34979414 24.03125323 4.2699187 31.38323166 4 39 C-2.96091793 32.76569145 -4.2092833 22.95289392 -6.0625 14.125 C-6.23209229 13.41190674 -6.40168457 12.69881348 -6.57641602 11.96411133 C-7.12322677 9.09192301 -7.42537867 6.79193955 -6.01123047 4.15917969 C-2.69874963 0 -2.69874963 0 0 0 Z " fill="#F3F3F3" transform="translate(158,149)"/>
<path d="M0 0 C-5.54230882 12.61158028 -22.57300012 22.70451786 -34.7421875 28.01171875 C-40.27932518 29.69144996 -47.63902575 30.68048713 -53 28 C-56.69083925 27.5078881 -58.37401733 27.52227638 -61.375 29.8125 C-64.60012156 33.44599734 -67.33946153 37.50935198 -70.1328125 41.4765625 C-71.65143679 43.52892922 -73.13341683 45.27254104 -75 47 C-75.99 46.67 -76.98 46.34 -78 46 C-77.49210937 45.443125 -76.98421875 44.88625 -76.4609375 44.3125 C-73.0612502 40.54355828 -69.75618083 36.78053082 -66.75 32.6875 C-62.238796 26.62821528 -62.238796 26.62821528 -60 25 C-56.22717474 24.66905042 -53.59264452 24.80245183 -50 26 C-37.69296677 27.21052786 -27.25527698 21.957705 -17.83203125 14.4140625 C-10.34452326 8.0915327 -10.34452326 8.0915327 -3.34765625 1.2421875 C-2 0 -2 0 0 0 Z " fill="#1C1C1C" transform="translate(339,9)"/>
<path d="M0 0 C0 0.66 0 1.32 0 2 C-0.88671387 2.0093457 -1.77342773 2.01869141 -2.68701172 2.02832031 C-6.02369853 2.07272241 -9.35917471 2.13450388 -12.6953125 2.20751953 C-14.13041729 2.23548864 -15.56566924 2.25682103 -17.00097656 2.27099609 C-34.52591289 2.45431133 -47.0687014 8.72495447 -59.90625 20.75 C-65.23228354 26.47349873 -66.99670219 33.5938687 -69 41 C-68.34 41 -67.68 41 -67 41 C-67 41.66 -67 42.32 -67 43 C-68.65 43 -70.3 43 -72 43 C-71.2833246 32.48876087 -66.63814663 23.15700354 -59 16 C-58.30390625 15.34515625 -57.6078125 14.6903125 -56.890625 14.015625 C-54.36219859 11.82658468 -51.74358384 9.91241769 -49 8 C-47.99710938 7.2471875 -46.99421875 6.494375 -45.9609375 5.71875 C-32.56848089 -3.16209754 -15.35903889 -0.70255984 0 0 Z " fill="#131313" transform="translate(93,130)"/>
<path d="M0 0 C3 0.1875 3 0.1875 6 1 C9.65117204 6.47675806 8.83590135 14.6862609 7.59863281 21.07128906 C6.60862767 25.11494466 5.35763303 29.06650072 4 33 C3.34 32.67 2.68 32.34 2 32 C2.13277344 31.443125 2.26554688 30.88625 2.40234375 30.3125 C4.54041555 21.07353283 5.14205056 12.47003739 5 3 C1.93417342 3.57038634 -0.30274859 4.20784492 -2.40625 6.59765625 C-8.34017713 15.6975506 -9.7146736 25.3695946 -11 36 C-11.33 36 -11.66 36 -12 36 C-14.14868748 25.76714181 -11.73635434 16.21510648 -6.3984375 7.3359375 C-4.43140863 4.67124321 -2.33980597 2.33980597 0 0 Z " fill="#222222" transform="translate(155,36)"/>
<path d="M0 0 C0.99 0.33 1.98 0.66 3 1 C-17.00757548 23.4799945 -17.00757548 23.4799945 -30 29 C-33.359375 29.18359375 -33.359375 29.18359375 -36 29 C-36.33 27.68 -36.66 26.36 -37 25 C-34 23 -34 23 -31.8125 23.375 C-31.214375 23.58125 -30.61625 23.7875 -30 24 C-30.99 24.66 -31.98 25.32 -33 26 C-20.16494065 24.34088999 -7.8427372 9.53074355 0 0 Z " fill="#1E1E1E" transform="translate(146,157)"/>
<path d="M0 0 C0.99 0.33 1.98 0.66 3 1 C4.89212737 1.22179785 6.78884472 1.40614015 8.6875 1.5625 C9.68136719 1.64628906 10.67523438 1.73007812 11.69921875 1.81640625 C12.83810547 1.90728516 12.83810547 1.90728516 14 2 C13.67 2.66 13.34 3.32 13 4 C11.20841511 4.02696365 9.41671527 4.04637917 7.625 4.0625 C6.62726563 4.07410156 5.62953125 4.08570313 4.6015625 4.09765625 C2 4 2 4 0 3 C-3.69083925 2.5078881 -5.37401733 2.52227638 -8.375 4.8125 C-11.60012156 8.44599734 -14.33946153 12.50935198 -17.1328125 16.4765625 C-18.65143679 18.52892922 -20.13341683 20.27254104 -22 22 C-22.99 21.67 -23.98 21.34 -25 21 C-24.49210937 20.443125 -23.98421875 19.88625 -23.4609375 19.3125 C-20.0612502 15.54355828 -16.75618083 11.78053082 -13.75 7.6875 C-7.51774941 -0.68343176 -7.51774941 -0.68343176 0 0 Z " fill="#121212" transform="translate(286,34)"/>
<path d="M0 0 C0.33 0 0.66 0 1 0 C1.71987111 4.55203602 2.43164123 9.10524146 3.13623047 13.65966797 C3.37656996 15.20590581 3.61904381 16.75181358 3.86376953 18.29736328 C4.21701209 20.53072134 4.56232745 22.76519004 4.90625 25 C5.0156189 25.68054443 5.12498779 26.36108887 5.2376709 27.06225586 C5.95212184 31.77331951 6.09273092 36.25217693 6 41 C4.68 40.67 3.36 40.34 2 40 C2.03222656 38.75347656 2.06445312 37.50695312 2.09765625 36.22265625 C2.09896341 29.54178125 0.987332 23.02895583 -0.02148438 16.43945312 C-0.84667878 10.65541604 -1.03416442 5.75981642 0 0 Z " fill="#262626" transform="translate(159,148)"/>
<path d="M0 0 C-1.55588961 3.84552261 -3.98095341 6.02073958 -7 8.8125 C-13.550641 15.06523524 -18.23879509 22.34695696 -23 30 C-23.66 29.67 -24.32 29.34 -25 29 C-22.34928871 21.35479061 -9.39093514 0 0 0 Z " fill="#1F1F1F" transform="translate(103,144)"/>
<path d="M0 0 C-1.87972866 5.63918597 -8.16491181 8.82265633 -13 12 C-16.26476565 13.61444455 -19.55121303 14.84641961 -23 16 C-23.84046875 16.36996094 -24.6809375 16.73992187 -25.546875 17.12109375 C-28.92497358 18.33139977 -31.53360338 17.67968561 -35 17 C-31.72782037 15.19793006 -28.46977883 14.23748141 -24.875 13.25 C-17.10213416 10.90330986 -10.67839746 7.38035976 -4.5 2.125 C-2 0 -2 0 0 0 Z " fill="#202020" transform="translate(126,113)"/>
<path d="M0 0 C0.4125 0.61875 0.825 1.2375 1.25 1.875 C3.05573879 4.06768281 4.4090534 4.92788417 7 6 C5.6875 8 5.6875 8 4 10 C3.01 10 2.02 10 1 10 C1.0825 10.721875 1.165 11.44375 1.25 12.1875 C0.92256852 15.87110419 -0.46093936 17.38626111 -3 20 C-3.66 20 -4.32 20 -5 20 C-5.33 18.02 -5.66 16.04 -6 14 C-4.68 13.34 -3.36 12.68 -2 12 C-2.33 11.01 -2.66 10.02 -3 9 C-2.34 8.34 -1.68 7.68 -1 7 C-0.59952556 4.67724823 -0.2602896 2.34260643 0 0 Z " fill="#3F3F3F" transform="translate(155,132)"/>
<path d="M0 0 C0 0.66 0 1.32 0 2 C-3.62128443 4.00678401 -7.24761643 6.0042648 -10.875 8 C-12.42380859 8.85851562 -12.42380859 8.85851562 -14.00390625 9.734375 C-15.48310547 10.54648437 -15.48310547 10.54648437 -16.9921875 11.375 C-17.90339355 11.87773438 -18.81459961 12.38046875 -19.75341797 12.8984375 C-22 14 -22 14 -24 14 C-24 13.34 -24 12.68 -24 12 C-19.05 9.36 -14.1 6.72 -9 4 C-11.64 4.33 -14.28 4.66 -17 5 C-15 2 -15 2 -13.046875 1.26953125 C-8.62742774 0.39015144 -4.53462521 -0.23254488 0 0 Z " fill="#121212" transform="translate(336,44)"/>
<path d="M0 0 C0.33 0 0.66 0 1 0 C1.17015625 0.96679688 1.3403125 1.93359375 1.515625 2.9296875 C2.942752 10.70782989 4.77618202 17.73914869 8 25 C8.33 25.99 8.66 26.98 9 28 C9.66 28 10.32 28 11 28 C11 25.69 11 23.38 11 21 C11.33 21 11.66 21 12 21 C12 23.97 12 26.94 12 30 C9.75 30 9.75 30 7 29 C2.45163837 21.83288471 -1.83351857 11.77934446 -0.75 3.1875 C-0.5025 2.135625 -0.255 1.08375 0 0 Z " fill="#212121" transform="translate(152,161)"/>
<path d="M0 0 C3.08726746 3.08726746 3.78029766 6.95383701 5.0625 11.0625 C5.33126953 11.88427734 5.60003906 12.70605469 5.87695312 13.55273438 C7.61429769 19.05938012 8.53048544 24.24409933 9 30 C8.34 30 7.68 30 7 30 C6.67386719 28.88882813 6.34773437 27.77765625 6.01171875 26.6328125 C5.80111816 25.91625488 5.59051758 25.19969727 5.37353516 24.46142578 C4.91512234 22.90021204 4.45777022 21.33868647 4.00146484 19.77685547 C2.53986792 14.78575719 1.01724964 9.82053313 -0.6171875 4.8828125 C-1 3 -1 3 0 0 Z " fill="#222222" transform="translate(146,104)"/>
<path d="M0 0 C0.66 0 1.32 0 2 0 C0.82895217 3.12279422 -0.540941 6.01092291 -2.125 8.9375 C-3.91120742 12.42391227 -4.39637633 15.03623668 -4 19 C-2.35 19.33 -0.7 19.66 1 20 C1 20.33 1 20.66 1 21 C-1.33294775 21.04241723 -3.66702567 21.04092937 -6 21 C-7 20 -7 20 -7.5 16.6875 C-7.47705377 10.38875988 -3.62904864 4.92631038 0 0 Z " fill="#181818" transform="translate(77,173)"/>
<path d="M0 0 C-0.59253113 5.23402501 -1.19536193 8.19536193 -5 12 C-5.69748583 13.31747324 -6.36959957 14.64914193 -7 16 C-8.64176991 12.71646019 -7.94373682 9.42025424 -7 6 C-3.40756303 0 -3.40756303 0 0 0 Z " fill="#1B1B1B" transform="translate(182,94)"/>
<path d="M0 0 C0.99 0.33 1.98 0.66 3 1 C1.45099858 2.82571623 -0.11240719 4.63452142 -1.6875 6.4375 C-2.34008789 7.2119043 -2.34008789 7.2119043 -3.00585938 8.00195312 C-5.81251971 11.18283484 -7.71905751 12.69917701 -12 13 C-8.19524578 8.43969176 -4.25030379 4.14910608 0 0 Z " fill="#323232" transform="translate(260,56)"/>
<path d="M0 0 C0.33 0 0.66 0 1 0 C2.20443195 7.05453001 3.28100502 13.83437211 3 21 C1.68 20.67 0.36 20.34 -1 20 C-1.02703562 17.41659616 -1.04685611 14.83347692 -1.0625 12.25 C-1.07087891 11.52039063 -1.07925781 10.79078125 -1.08789062 10.0390625 C-1.10391684 6.51329442 -0.95292713 3.38965084 0 0 Z " fill="#494949" transform="translate(162,168)"/>
<path d="M0 0 C-2.19622555 4.98632843 -5.79779311 8.59932517 -10 12 C-13.5 13 -13.5 13 -16 13 C-15.67 11.35 -15.34 9.7 -15 8 C-14.67 8.66 -14.34 9.32 -14 10 C-9.72083813 7.79558328 -6.79606368 4.90132762 -3.55078125 1.42578125 C-2 0 -2 0 0 0 Z " fill="#292929" transform="translate(190,105)"/>
<path d="M0 0 C0.4025937 3.52269485 0.13372795 4.79940808 -1.875 7.8125 C-2.57625 8.534375 -3.2775 9.25625 -4 10 C-4.66 10 -5.32 10 -6 10 C-6.33 8.02 -6.66 6.04 -7 4 C-2.25 0 -2.25 0 0 0 Z " fill="#EBEBEB" transform="translate(156,142)"/>
<path d="M0 0 C-3.07471613 3.07471613 -6.8018384 4.07011404 -11 5 C-13.51225678 4.96345808 -15.53515397 4.57687886 -18 4 C-14.89576443 2.31945639 -11.83501066 1.26010501 -8.4375 0.3125 C-7.48746094 0.04050781 -6.53742188 -0.23148437 -5.55859375 -0.51171875 C-3 -1 -3 -1 0 0 Z " fill="#262626" transform="translate(109,126)"/>
<path d="M0 0 C0.66 0 1.32 0 2 0 C1 7.42857143 1 7.42857143 0 11 C0.66 11 1.32 11 2 11 C2 11.66 2 12.32 2 13 C0.35 13 -1.3 13 -3 13 C-2.45144652 8.428721 -1.58255197 4.32564205 0 0 Z " fill="#222222" transform="translate(24,160)"/>
<path d="M0 0 C-1.52059907 3.88014936 -3.86078531 5.73906562 -7.125 8.25 C-8.03507812 8.95640625 -8.94515625 9.6628125 -9.8828125 10.390625 C-10.58148438 10.92171875 -11.28015625 11.4528125 -12 12 C-12.66 11.34 -13.32 10.68 -14 10 C-12.56458334 8.70601853 -11.12658648 7.41489889 -9.6875 6.125 C-8.88699219 5.40570313 -8.08648437 4.68640625 -7.26171875 3.9453125 C-2.6746988 0 -2.6746988 0 0 0 Z " fill="#1D1D1D" transform="translate(116,133)"/>
<path d="M0 0 C-1.53643852 3.68069887 -3.78150945 5.98775204 -6.625 8.75 C-7.85089844 9.94882813 -7.85089844 9.94882813 -9.1015625 11.171875 C-9.72804687 11.77515625 -10.35453125 12.3784375 -11 13 C-11.66 12.34 -12.32 11.68 -13 11 C-11.21427748 9.16052663 -9.42197551 7.32842259 -7.625 5.5 C-7.11710938 4.97535156 -6.60921875 4.45070313 -6.0859375 3.91015625 C-2.2265625 0 -2.2265625 0 0 0 Z " fill="#161616" transform="translate(138,101)"/>
<path d="M0 0 C0.66 0 1.32 0 2 0 C0.47987323 5.40489519 -3.27385218 8.98492628 -7 13 C-7.99 12.67 -8.98 12.34 -10 12 C-9.44570313 11.38511719 -8.89140625 10.77023438 -8.3203125 10.13671875 C-7.59585937 9.32847656 -6.87140625 8.52023438 -6.125 7.6875 C-5.40570313 6.88699219 -4.68640625 6.08648437 -3.9453125 5.26171875 C-1.88394498 2.95810917 -1.88394498 2.95810917 0 0 Z " fill="#1E1E1E" transform="translate(271,43)"/>
<path d="M0 0 C-1.40844718 3.21524305 -3.10344786 5.32183868 -5.625 7.75 C-6.57246094 8.67039063 -6.57246094 8.67039063 -7.5390625 9.609375 C-8.02117187 10.06828125 -8.50328125 10.5271875 -9 11 C-9.66 10.34 -10.32 9.68 -11 9 C-3.8 0 -3.8 0 0 0 Z " fill="#323232" transform="translate(103,144)"/>
<path d="M0 0 C0.33 0.99 0.66 1.98 1 3 C0.32453125 3.26554688 -0.3509375 3.53109375 -1.046875 3.8046875 C-1.93890625 4.15789062 -2.8309375 4.51109375 -3.75 4.875 C-4.63171875 5.22304687 -5.5134375 5.57109375 -6.421875 5.9296875 C-8.6740248 6.8646709 -10.83649459 7.87780794 -13 9 C-12.80859375 7.171875 -12.80859375 7.171875 -12 5 C-9.78515625 3.515625 -9.78515625 3.515625 -7.0625 2.25 C-6.16660156 1.82203125 -5.27070312 1.3940625 -4.34765625 0.953125 C-2 0 -2 0 0 0 Z " fill="#2C2C2C" transform="translate(129,126)"/>
<path d="M0 0 C1.75 0.0625 1.75 0.0625 4 1 C5.22239401 2.51190838 6.44293958 4.02575797 7.62890625 5.56640625 C9.72781876 7.76099568 12.10556613 8.32687584 15 9 C15 9.33 15 9.66 15 10 C11.22687995 10.35098791 9.46488965 10.30640454 6.25 8.1875 C4 6 4 6 2 3 C1.01 2.34 0.02 1.68 -1 1 C-0.67 0.67 -0.34 0.34 0 0 Z " fill="#101010" transform="translate(212,72)"/>
<path d="M0 0 C0.66 0 1.32 0 2 0 C5 4.38461538 5 4.38461538 5 7 C5.66 7 6.32 7 7 7 C7 4.69 7 2.38 7 0 C7.33 0 7.66 0 8 0 C8 2.97 8 5.94 8 9 C5.6875 8.875 5.6875 8.875 3 8 C0 3.13793103 0 3.13793103 0 0 Z " fill="#181818" transform="translate(156,182)"/>
<path d="M0 0 C1.03274898 2.68514734 1.07566569 3.7921588 0.07421875 6.54296875 C-0.38339844 7.41566406 -0.84101563 8.28835937 -1.3125 9.1875 C-1.76238281 10.06792969 -2.21226562 10.94835937 -2.67578125 11.85546875 C-4 14 -4 14 -6 15 C-5.39644592 11.14974121 -4.23227397 8.13898841 -2.4375 4.6875 C-1.98246094 3.80449219 -1.52742187 2.92148438 -1.05859375 2.01171875 C-0.53458984 1.01591797 -0.53458984 1.01591797 0 0 Z " fill="#181818" transform="translate(157,68)"/>
<path d="M0 0 C2.75 1 2.75 1 3.75 3 C3.09 3.66 2.43 4.32 1.75 5 C1.75 4.34 1.75 3.68 1.75 3 C0.8425 3.309375 -0.065 3.61875 -1 3.9375 C-3.41563338 4.7272263 -5.77780285 5.42949297 -8.25 6 C-4.08673469 0 -4.08673469 0 0 0 Z " fill="#2E2E2E" transform="translate(158.25,36)"/>
<path d="M0 0 C0 0.66 0 1.32 0 2 C-0.99 2.66 -1.98 3.32 -3 4 C-4.19232613 6.05003955 -4.19232613 6.05003955 -5 8 C-5 7.34 -5 6.68 -5 6 C-6.32 6.33 -7.64 6.66 -9 7 C-8.67 6.01 -8.34 5.02 -8 4 C-7.34 4 -6.68 4 -6 4 C-6 3.01 -6 2.02 -6 1 C-3.92446352 0.4465236 -2.15634036 0 0 0 Z " fill="#0E0E0E" transform="translate(153,142)"/>
<path d="M0 0 C-0.66 3.3 -1.32 6.6 -2 10 C-2.33 9.01 -2.66 8.02 -3 7 C-3.99 6.67 -4.98 6.34 -6 6 C-5.67 4.35 -5.34 2.7 -5 1 C-2 0 -2 0 0 0 Z " fill="#0E0E0E" transform="translate(161,141)"/>
<path d="M0 0 C-3.40219265 2.74792483 -7.48464588 6 -12 6 C-12 5.34 -12 4.68 -12 4 C-10.56988027 3.13353333 -9.13059381 2.28218171 -7.6875 1.4375 C-6.48673828 0.72400391 -6.48673828 0.72400391 -5.26171875 -0.00390625 C-3 -1 -3 -1 0 0 Z " fill="#1E1E1E" transform="translate(324,52)"/>
<path d="M0 0 C1.90845703 0.15275391 1.90845703 0.15275391 3.85546875 0.30859375 C4.83128906 0.39238281 5.80710937 0.47617188 6.8125 0.5625 C6.8125 0.8925 6.8125 1.2225 6.8125 1.5625 C-1.6025 2.0575 -1.6025 2.0575 -10.1875 2.5625 C-10.1875 1.9025 -10.1875 1.2425 -10.1875 0.5625 C-6.51762779 -0.66079074 -3.84782178 -0.31771006 0 0 Z " fill="#2E2E2E" transform="translate(67.1875,130.4375)"/>
<path d="M0 0 C0.66 0.66 1.32 1.32 2 2 C1.9765625 5.0390625 1.9765625 5.0390625 1.625 8.625 C1.51414063 9.81351563 1.40328125 11.00203125 1.2890625 12.2265625 C1.19367188 13.14179687 1.09828125 14.05703125 1 15 C0.67 15 0.34 15 0 15 C-0.19601608 13.25093341 -0.38147403 11.50068154 -0.5625 9.75 C-0.66691406 8.77546875 -0.77132812 7.8009375 -0.87890625 6.796875 C-0.98974468 4.2368648 -0.77738092 2.41851841 0 0 Z " fill="#363636" transform="translate(143,57)"/>
<path d="M0 0 C-0.33 0.99 -0.66 1.98 -1 3 C-3.06640625 3.94921875 -3.06640625 3.94921875 -5.5625 4.6875 C-6.38878906 4.93886719 -7.21507812 5.19023438 -8.06640625 5.44921875 C-8.70449219 5.63097656 -9.34257812 5.81273437 -10 6 C-10.33 5.01 -10.66 4.02 -11 3 C-9.54293274 2.49632243 -8.08429904 1.99717444 -6.625 1.5 C-5.81289063 1.2215625 -5.00078125 0.943125 -4.1640625 0.65625 C-2 0 -2 0 0 0 Z " fill="#303030" transform="translate(309,32)"/>
<path d="M0 0 C2.3129482 2.3129482 2.49580975 3.47904875 3.125 6.625 C3.29257813 7.44226563 3.46015625 8.25953125 3.6328125 9.1015625 C3.81457031 10.04128906 3.81457031 10.04128906 4 11 C3.01 10.67 2.02 10.34 1 10 C0.234375 7.96875 0.234375 7.96875 -0.25 5.5 C-0.42015625 4.6853125 -0.5903125 3.870625 -0.765625 3.03125 C-0.84296875 2.3609375 -0.9203125 1.690625 -1 1 C-0.67 0.67 -0.34 0.34 0 0 Z " fill="#2A2A2A" transform="translate(146,104)"/>
<path d="M0 0 C0.66 0 1.32 0 2 0 C1.39009109 3.55780196 0.4216319 6.6828589 -1 10 C-1.99 9.67 -2.98 9.34 -4 9 C-2.68 6.03 -1.36 3.06 0 0 Z " fill="#202020" transform="translate(171,117)"/>
<path d="M0 0 C0.33 0 0.66 0 1 0 C1.22162329 1.62324086 1.42689803 3.248721 1.625 4.875 C1.74101562 5.77992188 1.85703125 6.68484375 1.9765625 7.6171875 C1.98429688 8.40351563 1.99203125 9.18984375 2 10 C1.34 10.66 0.68 11.32 0 12 C-0.19573608 10.56359829 -0.38127816 9.12580496 -0.5625 7.6875 C-0.66691406 6.88699219 -0.77132812 6.08648437 -0.87890625 5.26171875 C-1 3 -1 3 0 0 Z " fill="#383838" transform="translate(152,161)"/>
<path d="M0 0 C0 0.66 0 1.32 0 2 C-1.4609375 3.2890625 -1.4609375 3.2890625 -3.375 4.625 C-4.00148438 5.07101563 -4.62796875 5.51703125 -5.2734375 5.9765625 C-7 7 -7 7 -9 7 C-7.68534669 3.05604006 -4.38536841 0 0 0 Z " fill="#151515" transform="translate(119,167)"/>
<path d="M0 0 C-1.49097658 3.7952131 -3.75700849 5.61042731 -7 8 C-7 5 -7 5 -4.625 2.3125 C-2 0 -2 0 0 0 Z " fill="#161616" transform="translate(141,165)"/>
<path d="M0 0 C0.66 0.99 1.32 1.98 2 3 C0.02 5.97 0.02 5.97 -2 9 C-2.99 8.67 -3.98 8.34 -5 8 C-3.35 5.36 -1.7 2.72 0 0 Z " fill="#242424" transform="translate(150,81)"/>
<path d="M0 0 C-3.72965139 2.03435531 -5.66905042 3 -10 3 C-10 2.34 -10 1.68 -10 1 C-3.71428571 -1.42857143 -3.71428571 -1.42857143 0 0 Z " fill="#1A1A1A" transform="translate(303,55)"/>
<path d="M0 0 C0.99 0.33 1.98 0.66 3 1 C2.44271087 4.34373475 1.64826111 7.03312999 0 10 C-1.6415049 6.7169902 -0.51888624 3.57454967 0 0 Z " fill="#5A5A5A" transform="translate(175,100)"/>
<path d="M0 0 C-2.68841859 2.25245881 -4.64641875 3.88213958 -8 5 C-8 4.01 -8 3.02 -8 2 C-3.71900826 -1.23966942 -3.71900826 -1.23966942 0 0 Z " fill="#232323" transform="translate(236,85)"/>
<path d="M0 0 C0.99 0.33 1.98 0.66 3 1 C-2.75 6 -2.75 6 -5 6 C-3.63016497 2.83884224 -3.0109362 2.0072908 0 0 Z " fill="#1B1B1B" transform="translate(247,69)"/>
<path d="M0 0 C0 3.99904969 -1.72586967 5.80200422 -4 9 C-4.66 8.67 -5.32 8.34 -6 8 C-4.55746343 4.63408134 -2.66735273 2.48952921 0 0 Z " fill="#171717" transform="translate(278,35)"/>
<path d="M0 0 C-0.66 0.66 -1.32 1.32 -2 2 C-5.625 1.625 -5.625 1.625 -9 1 C-5.64919071 -1.10976881 -3.77897651 -1.0497157 0 0 Z " fill="#333333" transform="translate(100,129)"/>
<path d="M0 0 C0.99 0.33 1.98 0.66 3 1 C0.63707344 3.52588702 -0.66462511 4.88820837 -4 6 C-4 5.01 -4 4.02 -4 3 C-2.1875 1.25 -2.1875 1.25 0 0 Z " fill="#232323" transform="translate(181,119)"/>
<path d="M0 0 C-3.96 1.98 -3.96 1.98 -8 4 C-8.33 3.01 -8.66 2.02 -9 1 C-3.375 -1.125 -3.375 -1.125 0 0 Z " fill="#C6C6C6" transform="translate(328,48)"/>
<path d="M0 0 C1.65 0 3.3 0 5 0 C4 1.5 4 1.5 2 3 C-0.71846235 3.27345479 -3.25677199 3.13491285 -6 3 C-6 2.67 -6 2.34 -6 2 C-4.02 2 -2.04 2 0 2 C0 1.34 0 0.68 0 0 Z " fill="#343434" transform="translate(78,192)"/>
<path d="M0 0 C0.99 0.33 1.98 0.66 3 1 C1.25 3.0625 1.25 3.0625 -1 5 C-3.25 4.75 -3.25 4.75 -5 4 C-2.6875 1.9375 -2.6875 1.9375 0 0 Z " fill="#252525" transform="translate(41,140)"/>
<path d="M0 0 C0.66 0.33 1.32 0.66 2 1 C1.67 1.99 1.34 2.98 1 4 C-1.5625 5.1875 -1.5625 5.1875 -4 6 C-3.6875 4.125 -3.6875 4.125 -3 2 C-2.01 1.34 -1.02 0.68 0 0 Z " fill="#EDEDED" transform="translate(241,76)"/>
</svg>
